<?xml version="1.0" encoding="UTF-8"?>
<svg id="Layer_1" data-name="Layer 1" xmlns="http://www.w3.org/2000/svg" viewBox="0 0 635.75 72">
  <defs>
    <style>
      .cls-1 {
        fill: #fc4710;
      }

      .cls-1, .cls-2 {
        stroke-width: 0px;
      }

      .cls-2 {
        fill: #3b424a;
      }
    </style>
  </defs>
  <path class="cls-1" d="M114.18,3.13c-4.17-4.17-10.93-4.17-15.1,0l-49.08,49.08c-2.09,2.09-5.47,2.09-7.55,0-2.09-2.09-2.09-5.47,0-7.55l26.43-26.43c4.17-4.17,4.17-10.93,0-15.1-4.17-4.17-10.93-4.17-15.1,0l-26.43,26.43c-2.09,2.09-5.47,2.09-7.55,0-2.09-2.09-2.09-5.47,0-7.55l3.78-3.78c4.17-4.17,4.17-10.93,0-15.1s-10.93-4.17-15.1,0l-3.78,3.78c-6.26,6.26-6.26,16.4,0,22.65,7.55,7.55,13.97,8.96,21.38,16.37s8.82,13.83,16.37,21.38c6.26,6.26,16.4,6.26,22.65,0l49.08-49.08c4.17-4.17,4.17-10.93,0-15.1Z"/>
  <g>
    <path class="cls-2" d="M257.48,20.99c-14.09,0-25.51,11.42-25.51,25.51s11.42,25.51,25.51,25.51,25.51-11.42,25.51-25.51-11.42-25.51-25.51-25.51ZM257.48,63.16c-9.21,0-16.67-7.46-16.67-16.67s7.46-16.67,16.67-16.67,16.67,7.46,16.67,16.67-7.46,16.67-16.67,16.67Z"/>
    <path class="cls-2" d="M237.87.7l-23.6,70.29h-8.64l-17.37-51.75-17.37,51.75h-8.64L138.66.7h9.85l18.07,53.81L184.64.7h7.25l18.07,53.81L228.02.7h9.85Z"/>
    <path class="cls-2" d="M318.04,21.99v8.85s-2.67-1.16-6.02-1.01c-4.31.19-9.34,3-12.25,8.52v32.64h-9.34V21.99h9.34v7.13c2.71-4.92,7.87-8.04,12.59-8.13,3.22-.06,5.69,1,5.69,1Z"/>
    <path class="cls-2" d="M356.07,71l-22.69-22.6v22.6h-9.34V.7h9.34v42.78l21.49-21.49h11.25l-23.5,23.5,25.61,25.51h-12.15Z"/>
    <path class="cls-2" d="M413.79.7v8.84h-30.63v20.31h27.31v8.84h-27.31v32.31h-9.34V.7h39.97Z"/>
    <path class="cls-2" d="M468.93,64.97l3.82-6.93s7.13,5.87,16.47,5.87c6.06,0,9.54-2.87,9.54-6.7,0-10.04-28.32-3.4-28.32-21.47,0-8.94,7.53-14.75,18.58-14.75s18.05,6.13,18.05,6.13l-4.3,7.13s-6.45-5.53-14.66-5.28c-4.94.15-8.44,2.37-8.44,6.18,0,9.94,28.42,3.47,28.42,21.45,0,9.04-7.63,15.41-18.78,15.41-12.96,0-20.39-7.03-20.39-7.03Z"/>
    <path class="cls-2" d="M526.58,6.23c0,3.41-2.91,6.23-6.23,6.23s-6.23-2.81-6.23-6.23S516.93,0,520.35,0s6.23,2.91,6.23,6.23ZM524.97,21.99v49h-9.34V21.99h9.34Z"/>
    <path class="cls-2" d="M557.61,20.99c-14.09,0-25.51,11.42-25.51,25.51s11.42,25.51,25.51,25.51,25.51-11.42,25.51-25.51-11.42-25.51-25.51-25.51ZM557.61,63.16c-9.21,0-16.67-7.46-16.67-16.67s7.46-16.67,16.67-16.67,16.67,7.46,16.67,16.67-7.46,16.67-16.67,16.67Z"/>
    <path class="cls-2" d="M590.26,71V21.99h9.24v6.68c3.1-3.97,8.57-7.79,16.38-7.68,12.28.16,19.87,8.5,19.87,21.99v28.02h-9.34v-27.42c0-8.64-5.12-13.45-12.85-13.45-5.82,0-11.35,3.11-14.06,8.03v32.84h-9.24Z"/>
    <path class="cls-2" d="M462.5,21.99v49h-9.24v-6.68c-3.1,3.97-8.57,7.79-16.38,7.68-12.28-.16-19.87-8.5-19.87-21.99v-28.02h9.34v27.42c0,8.64,5.12,13.45,12.85,13.45,5.82,0,11.35-3.11,14.06-8.03V21.99h9.24Z"/>
  </g>
</svg>